<svg width="20" height="20" viewBox="0 0 20 20" fill="none" xmlns="http://www.w3.org/2000/svg">
<path d="M8.14497 15.9298C7.71774 17.6505 8.35918 18.0069 9.50666 16.7507L14.3267 11.2123C15.4419 9.85108 15.1626 8.75743 13.5566 8.48402L11.2326 8.05364C11.0969 8.02849 11.0072 7.89806 11.0323 7.76229C11.0332 7.75781 11.0341 7.75336 11.0352 7.74893L11.9295 4.059C12.3579 2.32743 11.6439 2.01385 10.5728 3.24094C9.03377 4.97621 7.86422 6.28708 7.06413 7.17353C6.78518 7.48258 6.33618 7.96498 5.71712 8.62073C4.36037 10.1263 5.07444 11.2181 6.64373 11.4915L8.86472 11.8897C9.00063 11.914 9.09105 12.044 9.06669 12.1799C9.06575 12.1851 9.06464 12.1903 9.06337 12.1955L8.14497 15.9298Z" fill="white"/>
</svg>
