<svg width="24" height="24" viewBox="0 0 24 24" fill="none" xmlns="http://www.w3.org/2000/svg">
<path d="M21.8191 3.42857H15.3408C14.896 3.42857 14.273 3.68974 13.9588 4.00772L5.9269 12.1366C5.77545 12.2906 5.69043 12.499 5.69043 12.7163C5.69043 12.9336 5.77545 13.142 5.9269 13.296L12.8791 20.3321C13.0313 20.4854 13.2372 20.5714 13.4519 20.5714C13.6666 20.5714 13.8725 20.4854 14.0247 20.3321L22.0566 12.2032C22.3719 11.8842 22.6288 11.2547 22.6288 10.8045V4.24813C22.6283 4.03094 22.5428 3.82282 22.391 3.66925C22.2393 3.51568 22.0336 3.42915 21.8191 3.42857V3.42857ZM17.7702 9.98499C17.5574 9.98492 17.3468 9.94244 17.1502 9.85997C16.9537 9.7775 16.7751 9.65667 16.6247 9.50436C16.4744 9.35205 16.3551 9.17126 16.2737 8.9723C16.1924 8.77334 16.1505 8.56011 16.1506 8.34479C16.1507 8.12947 16.1927 7.91627 16.2741 7.71737C16.3556 7.51846 16.475 7.33775 16.6255 7.18554C16.776 7.03334 16.9546 6.91262 17.1512 6.83029C17.3478 6.74796 17.5585 6.70562 17.7712 6.70569C18.2009 6.70583 18.6129 6.87872 18.9167 7.18632C19.2204 7.49391 19.3909 7.91102 19.3908 8.34589C19.3907 8.78075 19.2198 9.19774 18.9159 9.50513C18.612 9.81252 18.1998 9.98513 17.7702 9.98499Z" fill="#E31E25"/>
<path d="M3.19414 12.7168L12.3716 3.42857H11.022C10.5771 3.42857 9.95416 3.68974 9.63997 4.00772L1.60805 12.1366C1.45661 12.2906 1.37158 12.499 1.37158 12.7163C1.37158 12.9336 1.45661 13.142 1.60805 13.296L8.56026 20.3321C8.71242 20.4854 8.91837 20.5714 9.13305 20.5714C9.34773 20.5714 9.55367 20.4854 9.70583 20.3321L10.2133 19.8185L3.19522 12.7157L3.19414 12.7168Z" fill="#E31E25"/>
</svg>
