<svg width="24" height="24" viewBox="0 0 24 24" fill="none" xmlns="http://www.w3.org/2000/svg">
<g clip-path="url(#clip0_1246_159)">
<path d="M23.7938 0.206003C23.5192 -0.0686373 23.0742 -0.0686373 22.7996 0.206003L20.445 2.56053C19.6624 2.19121 18.7063 2.31078 18.06 2.95705L13.5854 7.4316L16.568 10.4146L21.0427 5.93985C21.6891 5.29353 21.8086 4.33738 21.4393 3.5548L23.7938 1.20027C24.0685 0.925581 24.0685 0.480644 23.7938 0.206003Z" fill="#E31E25"/>
<path d="M4.13981 21.8515L2.14992 19.8609C2.01141 19.7222 1.8967 19.5693 1.78627 19.4147C1.49264 19.9952 1.47633 20.6764 1.74539 21.2603L0.206016 22.7997C-0.0686719 23.0744 -0.0686719 23.5193 0.206016 23.794C0.480656 24.0686 0.925641 24.0686 1.20028 23.794L2.74762 22.2466C3.40598 22.5569 3.95466 22.5321 4.58287 22.2149C4.42856 22.1041 4.27687 21.9883 4.13981 21.8515Z" fill="#E31E25"/>
<path d="M16.0711 11.9061L12.094 7.92909C11.2721 7.10648 9.93386 7.10648 9.1106 7.92909C8.55508 8.4846 8.3553 9.29549 8.58808 10.0474C8.64372 10.2266 8.56338 10.4648 8.3876 10.6406L3.14364 15.8838C2.3231 16.7064 2.3231 18.044 3.14435 18.8666L5.13358 20.8565C5.95619 21.6777 7.29377 21.677 8.11638 20.8558L8.66355 20.3086L6.1773 17.8229C5.90266 17.5482 5.90266 17.1033 6.1773 16.8286C6.45194 16.554 6.89692 16.554 7.17157 16.8286L9.65781 19.3144L10.6523 18.3199L8.16653 15.8337C7.89189 15.559 7.89189 15.114 8.16653 14.8394C8.44117 14.5648 8.88616 14.5648 9.1608 14.8394L11.6465 17.3256L12.641 16.3311L10.155 13.8451C9.88038 13.5705 9.88038 13.1255 10.155 12.8509C10.4297 12.5762 10.8745 12.5763 11.1492 12.8509L13.7211 15.4228C13.8016 15.4057 13.8832 15.391 13.9535 15.4121C14.7054 15.6476 15.5163 15.4464 16.0711 14.8896C16.8937 14.067 16.8937 12.7287 16.0711 11.9061Z" fill="#E31E25"/>
</g>
<defs>
<clipPath id="clip0_1246_159">
<rect width="24" height="24" fill="white"/>
</clipPath>
</defs>
</svg>
